{
	"asset":{
		"generator":"Khronos glTF Blender I/O v4.2.60",
		"version":"2.0"
	},
	"scene":0,
	"scenes":[
		{
			"name":"Scene",
			"nodes":[
				0,
				1,
				2,
				3,
				4
			]
		}
	],
	"nodes":[
		{
			"mesh":0,
			"name":"Tanque",
			"rotation":[
				0,
				0,
				-0.7071068286895752,
				0.7071068286895752
			],
			"translation":[
				-0.046813249588012695,
				1.355767846107483,
				-0.33426856994628906
			]
		},
		{
			"mesh":1,
			"name":"Pala1",
			"rotation":[
				0.7071068286895752,
				0.00011442452523624524,
				-0.00011442451796028763,
				0.7071068286895752
			],
			"scale":[
				0.12669408321380615,
				0.11197833716869354,
				3.029411792755127
			],
			"translation":[
				0.7143959999084473,
				1.5529283285140991,
				-0.32522204518318176
			]
		},
		{
			"mesh":2,
			"name":"Pala2",
			"rotation":[
				0.7071068286895752,
				0,
				0,
				0.7071068286895752
			],
			"scale":[
				0.12669408321380615,
				0.11197833716869354,
				3.029411792755127
			],
			"translation":[
				-0.7696309089660645,
				1.5750114917755127,
				-0.32522204518318176
			]
		},
		{
			"mesh":3,
			"name":"ValvulaEntrada",
			"scale":[
				1,
				0.6555077433586121,
				0.6555077433586121
			],
			"translation":[
				1.5906295776367188,
				0.8521290421485901,
				0.03981563448905945
			]
		},
		{
			"mesh":4,
			"name":"ValvulaSalida",
			"scale":[
				1,
				0.6555077433586121,
				0.6555077433586121
			],
			"translation":[
				1.583068609237671,
				0.8521290421485901,
				-0.6513618230819702
			]
		}
	],
	"materials":[
		{
			"alphaMode":"BLEND",
			"doubleSided":true,
			"name":"Material.001",
			"pbrMetallicRoughness":{
				"baseColorFactor":[
					0.800000011920929,
					0.800000011920929,
					0.800000011920929,
					0.20183485746383667
				],
				"metallicFactor":0,
				"roughnessFactor":0.5
			}
		}
	],
	"meshes":[
		{
			"name":"Cilindro.002",
			"primitives":[
				{
					"attributes":{
						"POSITION":0,
						"NORMAL":1,
						"TEXCOORD_0":2
					},
					"indices":3,
					"material":0
				}
			]
		},
		{
			"name":"Cubo.002",
			"primitives":[
				{
					"attributes":{
						"POSITION":4,
						"NORMAL":5,
						"TEXCOORD_0":6
					},
					"indices":7
				}
			]
		},
		{
			"name":"Cubo.003",
			"primitives":[
				{
					"attributes":{
						"POSITION":8,
						"NORMAL":9,
						"TEXCOORD_0":10
					},
					"indices":7
				}
			]
		},
		{
			"name":"Cubo",
			"primitives":[
				{
					"attributes":{
						"POSITION":11,
						"NORMAL":12,
						"TEXCOORD_0":13
					},
					"indices":14
				}
			]
		},
		{
			"name":"Cubo.001",
			"primitives":[
				{
					"attributes":{
						"POSITION":15,
						"NORMAL":16,
						"TEXCOORD_0":17
					},
					"indices":14
				}
			]
		}
	],
	"accessors":[
		{
			"bufferView":0,
			"componentType":5126,
			"count":300,
			"max":[
				0.9980267286300659,
				1.5,
				1
			],
			"min":[
				-0.9980267286300659,
				-1.5,
				-1
			],
			"type":"VEC3"
		},
		{
			"bufferView":1,
			"componentType":5126,
			"count":300,
			"type":"VEC3"
		},
		{
			"bufferView":2,
			"componentType":5126,
			"count":300,
			"type":"VEC2"
		},
		{
			"bufferView":3,
			"componentType":5123,
			"count":588,
			"type":"SCALAR"
		},
		{
			"bufferView":4,
			"componentType":5126,
			"count":88,
			"max":[
				3.4072110652923584,
				3.8221192359924316,
				0.25
			],
			"min":[
				-3.4072110652923584,
				-3.8221192359924316,
				-0.25
			],
			"type":"VEC3"
		},
		{
			"bufferView":5,
			"componentType":5126,
			"count":88,
			"type":"VEC3"
		},
		{
			"bufferView":6,
			"componentType":5126,
			"count":88,
			"type":"VEC2"
		},
		{
			"bufferView":7,
			"componentType":5123,
			"count":156,
			"type":"SCALAR"
		},
		{
			"bufferView":8,
			"componentType":5126,
			"count":88,
			"max":[
				3.4072110652923584,
				3.8221192359924316,
				0.25
			],
			"min":[
				-3.4072110652923584,
				-3.8221192359924316,
				-0.25
			],
			"type":"VEC3"
		},
		{
			"bufferView":9,
			"componentType":5126,
			"count":88,
			"type":"VEC3"
		},
		{
			"bufferView":10,
			"componentType":5126,
			"count":88,
			"type":"VEC2"
		},
		{
			"bufferView":11,
			"componentType":5126,
			"count":24,
			"max":[
				0.15000000596046448,
				0.15000000596046448,
				0.15000000596046448
			],
			"min":[
				-0.15000000596046448,
				-0.15000000596046448,
				-0.15000000596046448
			],
			"type":"VEC3"
		},
		{
			"bufferView":12,
			"componentType":5126,
			"count":24,
			"type":"VEC3"
		},
		{
			"bufferView":13,
			"componentType":5126,
			"count":24,
			"type":"VEC2"
		},
		{
			"bufferView":14,
			"componentType":5123,
			"count":36,
			"type":"SCALAR"
		},
		{
			"bufferView":15,
			"componentType":5126,
			"count":24,
			"max":[
				0.15000000596046448,
				0.15000000596046448,
				0.15000000596046448
			],
			"min":[
				-0.15000000596046448,
				-0.15000000596046448,
				-0.15000000596046448
			],
			"type":"VEC3"
		},
		{
			"bufferView":16,
			"componentType":5126,
			"count":24,
			"type":"VEC3"
		},
		{
			"bufferView":17,
			"componentType":5126,
			"count":24,
			"type":"VEC2"
		}
	],
	"bufferViews":[
		{
			"buffer":0,
			"byteLength":3600,
			"byteOffset":0,
			"target":34962
		},
		{
			"buffer":0,
			"byteLength":3600,
			"byteOffset":3600,
			"target":34962
		},
		{
			"buffer":0,
			"byteLength":2400,
			"byteOffset":7200,
			"target":34962
		},
		{
			"buffer":0,
			"byteLength":1176,
			"byteOffset":9600,
			"target":34963
		},
		{
			"buffer":0,
			"byteLength":1056,
			"byteOffset":10776,
			"target":34962
		},
		{
			"buffer":0,
			"byteLength":1056,
			"byteOffset":11832,
			"target":34962
		},
		{
			"buffer":0,
			"byteLength":704,
			"byteOffset":12888,
			"target":34962
		},
		{
			"buffer":0,
			"byteLength":312,
			"byteOffset":13592,
			"target":34963
		},
		{
			"buffer":0,
			"byteLength":1056,
			"byteOffset":13904,
			"target":34962
		},
		{
			"buffer":0,
			"byteLength":1056,
			"byteOffset":14960,
			"target":34962
		},
		{
			"buffer":0,
			"byteLength":704,
			"byteOffset":16016,
			"target":34962
		},
		{
			"buffer":0,
			"byteLength":288,
			"byteOffset":16720,
			"target":34962
		},
		{
			"buffer":0,
			"byteLength":288,
			"byteOffset":17008,
			"target":34962
		},
		{
			"buffer":0,
			"byteLength":192,
			"byteOffset":17296,
			"target":34962
		},
		{
			"buffer":0,
			"byteLength":72,
			"byteOffset":17488,
			"target":34963
		},
		{
			"buffer":0,
			"byteLength":288,
			"byteOffset":17560,
			"target":34962
		},
		{
			"buffer":0,
			"byteLength":288,
			"byteOffset":17848,
			"target":34962
		},
		{
			"buffer":0,
			"byteLength":192,
			"byteOffset":18136,
			"target":34962
		}
	],
	"buffers":[
		{
			"byteLength":18328,
			"uri":"pruebaModeloTanque_v1.bin"
		}
	]
}
